<svg width="30" height="26" viewBox="0 0 30 26" fill="none" xmlns="http://www.w3.org/2000/svg">
<path d="M11.25 10.0057C11.9125 10.5202 12.79 10.8333 13.75 10.8333H16.25C17.1727 10.8344 18.0632 10.5396 18.75 10.0057H11.25ZM11.25 10.0057C10.5632 10.5396 9.67267 10.8344 8.75 10.8333L11.25 10.0057ZM10.05 4.33333V4.28333H10H6.25C5.90735 4.28333 5.57754 4.40124 5.33337 4.61285C5.08898 4.82466 4.95 5.11359 4.95 5.41667V7.58333C4.95 7.88641 5.08898 8.17534 5.33337 8.38715C5.57754 8.59876 5.90735 8.71667 6.25 8.71667H8.75C9.09266 8.71667 9.42247 8.59876 9.66663 8.38715C9.91102 8.17534 10.05 7.88641 10.05 7.58333V4.33333ZM6.2625 10.7833H6.2125V10.8333V21.6287V21.6787H6.2625H8.75H8.8V21.6287V16.25C8.8 15.6911 9.05611 15.1534 9.51498 14.7557C9.97408 14.3578 10.5981 14.1333 11.25 14.1333H13.75C14.4019 14.1333 15.0259 14.3578 15.485 14.7557C15.9439 15.1534 16.2 15.6911 16.2 16.25V21.6287V21.6787H16.25H23.7663H23.8163V21.6287V10.8333V10.7833H23.7663H21.25C20.3008 10.7833 19.4342 10.4738 18.7807 9.96618L18.75 9.94234L18.7193 9.96619C18.0418 10.4929 17.1623 10.7844 16.2501 10.7833H16.25H13.75C12.8008 10.7833 11.9342 10.4738 11.2807 9.96618L11.25 9.94234L11.2193 9.96619C10.5418 10.4929 9.66232 10.7844 8.75006 10.7833H8.75H6.2625ZM3.76075 9.95186C3.38369 9.65592 3.08171 9.2959 2.87351 8.89464C2.65943 8.48206 2.54928 8.03512 2.55 7.58341V7.58333V5.41667C2.55 4.57047 2.93781 3.75721 3.6311 3.15635C4.32462 2.55531 5.26658 2.21667 6.25 2.21667H23.75C24.7334 2.21667 25.6754 2.55531 26.3689 3.15635C27.0622 3.75721 27.45 4.57047 27.45 5.41667V7.58333C27.45 8.52142 26.9838 9.36779 26.2354 9.9544L26.2163 9.96941V9.99375V21.6287C26.2163 22.1876 25.9601 22.7253 25.5013 23.123C25.0422 23.5209 24.4182 23.7454 23.7663 23.7454H14.2163V23.7447L14.2082 23.7461C14.0571 23.7708 13.9037 23.7833 13.75 23.7833H11.25C11.0963 23.7833 10.9429 23.7708 10.7918 23.7461L10.7919 23.7454H10.7838H6.26375C5.61185 23.7454 4.98783 23.5209 4.52873 23.123C4.06986 22.7253 3.81375 22.1876 3.81375 21.6287V10.0154V9.90592L3.76075 9.95186ZM13.8 16.25V16.2H13.75H11.25H11.2V16.25V21.6287V21.6787H11.25H13.75V21.6298H13.8V21.6287V21.5787V16.25ZM17.55 4.33333V4.28333H17.5H12.5H12.45V4.33333V7.58333C12.45 7.88641 12.589 8.17534 12.8334 8.38715C13.0775 8.59876 13.4073 8.71667 13.75 8.71667H16.25C16.5927 8.71667 16.9225 8.59876 17.1666 8.38715C17.411 8.17534 17.55 7.88641 17.55 7.58333V4.33333ZM20 4.28333H19.95V4.33333V7.58333C19.95 7.88641 20.089 8.17534 20.3334 8.38715C20.5775 8.59876 20.9074 8.71667 21.25 8.71667H23.75C24.0927 8.71667 24.4225 8.59876 24.6666 8.38715C24.911 8.17534 25.05 7.88641 25.05 7.58333V5.41667C25.05 5.11359 24.911 4.82466 24.6666 4.61285C24.4225 4.40124 24.0927 4.28333 23.75 4.28333H20ZM20 14.1333H21.25C21.5704 14.1333 21.8765 14.2437 22.1011 14.4384C22.3256 14.6329 22.45 14.8951 22.45 15.1667V18.4167C22.45 18.6882 22.3256 18.9504 22.1011 19.1449C21.8765 19.3396 21.5704 19.45 21.25 19.45H20C19.6796 19.45 19.3735 19.3396 19.1489 19.1449C18.9244 18.9504 18.8 18.6882 18.8 18.4167V15.1667C18.8 14.8951 18.9244 14.6329 19.1489 14.4384C19.3735 14.2437 19.6796 14.1333 20 14.1333Z" fill="black" stroke="white" stroke-width="0.1"/>
</svg>
