<svg width="9" height="14" viewBox="0 0 9 14" fill="none" xmlns="http://www.w3.org/2000/svg">
<g clip-path="url(#clip0_1_1305)">
<path d="M0.353446 1.76842C0.148216 1.56842 0.0341981 1.30526 0.0456001 1.03158C0.0456001 0.757896 0.159617 0.505264 0.37625 0.305264C0.581481 0.11579 0.866523 3.3127e-07 1.16297 3.56163e-07C1.45941 3.81056e-07 1.74446 0.0947377 1.96109 0.284211L8.41446 6.24211C8.51707 6.33684 8.59689 6.45263 8.65389 6.57895C8.7109 6.70526 8.74511 6.84211 8.74511 6.97895C8.74511 7.11579 8.7109 7.25263 8.65389 7.38947C8.59689 7.51579 8.51707 7.63158 8.41446 7.72632L1.96109 13.6842C1.85847 13.7789 1.73305 13.8632 1.59623 13.9158C1.44801 13.9684 1.29979 14 1.15157 14C1.00334 14 0.843719 13.9789 0.706898 13.9263C0.570078 13.8737 0.444659 13.7895 0.330642 13.6947C0.228026 13.6 0.148215 13.4737 0.0912058 13.3474C0.0227951 13.2211 -7.8595e-06 13.0842 -7.84608e-06 12.9368C-7.83363e-06 12.8 0.0341971 12.6632 0.0912059 12.5368C0.148215 12.4105 0.239428 12.2947 0.353445 12.1895L5.99729 6.97895L4.92553 6L0.353446 1.76842Z" fill="#181725"/>
</g>
<defs>
<clipPath id="clip0_1_1305">
<rect width="8.4" height="13.4475" fill="white" transform="translate(8.74511 14) scale(1.04108) rotate(-180)"/>
</clipPath>
</defs>
</svg>
